<svg width="121" height="39" viewBox="0 0 121 39" fill="none" xmlns="http://www.w3.org/2000/svg">
<path d="M10.75 8.125C10.75 9.02383 11.4762 9.75 12.375 9.75C18.6566 9.75 23.75 14.8434 23.75 21.125C23.75 22.0238 24.4762 22.75 25.375 22.75C26.2738 22.75 27 22.0238 27 21.125C27 13.0457 20.4543 6.5 12.375 6.5C11.4762 6.5 10.75 7.22617 10.75 8.125ZM10.75 13C10.75 13.8988 11.4762 14.625 12.375 14.625C15.9652 14.625 18.875 17.5348 18.875 21.125C18.875 22.0238 19.6012 22.75 20.5 22.75C21.3988 22.75 22.125 22.0238 22.125 21.125C22.125 15.7422 17.7578 11.375 12.375 11.375C11.4762 11.375 10.75 12.1012 10.75 13ZM5.875 13.8125C5.875 12.4668 4.7832 11.375 3.4375 11.375C2.0918 11.375 1 12.4668 1 13.8125V25.1875C1 29.2246 4.27539 32.5 8.3125 32.5C12.3496 32.5 15.625 29.2246 15.625 25.1875C15.625 21.1504 12.3496 17.875 8.3125 17.875H7.5V22.75H8.3125C9.6582 22.75 10.75 23.8418 10.75 25.1875C10.75 26.5332 9.6582 27.625 8.3125 27.625C6.9668 27.625 5.875 26.5332 5.875 25.1875V13.8125Z" fill="#75B06F"/>
<path d="M46.3027 16.4082C46.3027 16.0332 46.2793 15.7344 46.2324 15.5117C46.1973 15.2891 46.1094 15.1133 45.9688 14.9844C45.8281 14.8555 45.6289 14.7676 45.3711 14.7207C45.1133 14.6738 44.7734 14.6387 44.3516 14.6152V14.2109H50.3105V14.6152C49.8887 14.627 49.5488 14.6621 49.291 14.7207C49.0332 14.7676 48.834 14.8555 48.6934 14.9844C48.5527 15.1133 48.459 15.2949 48.4121 15.5293C48.3652 15.752 48.3418 16.0449 48.3418 16.4082V25.3379C48.3418 25.7012 48.3652 26 48.4121 26.2344C48.4707 26.457 48.5703 26.6328 48.7109 26.7617C48.8516 26.8906 49.0508 26.9844 49.3086 27.043C49.5664 27.0898 49.9004 27.1191 50.3105 27.1309V27.5H44.3516V27.1309C44.7734 27.1191 45.1133 27.0898 45.3711 27.043C45.6289 26.9844 45.8223 26.8906 45.9512 26.7617C46.0918 26.6328 46.1855 26.457 46.2324 26.2344C46.2793 26.0117 46.3027 25.7129 46.3027 25.3379V16.4082ZM51.9137 19.168C52.4645 19.0156 52.9391 18.875 53.3375 18.7461C53.7477 18.6172 54.193 18.459 54.6734 18.2715L54.8316 18.3066V19.9062C55.1715 19.5898 55.4703 19.3262 55.7281 19.1152C55.9859 18.9043 56.2203 18.7402 56.4313 18.623C56.6539 18.4941 56.8648 18.4062 57.0641 18.3594C57.275 18.3008 57.4977 18.2715 57.732 18.2715C58.4703 18.2715 59.0504 18.5352 59.4723 19.0625C59.8941 19.5898 60.1051 20.3281 60.1051 21.2773V25.8828C60.1051 26.3633 60.1871 26.6914 60.3512 26.8672C60.5152 27.043 60.8375 27.1602 61.318 27.2188V27.5H57.152V27.2188C57.398 27.1953 57.6031 27.1543 57.7672 27.0957C57.9313 27.0371 58.0602 26.9434 58.1539 26.8145C58.2594 26.6855 58.3297 26.5156 58.3648 26.3047C58.4 26.0938 58.4176 25.8301 58.4176 25.5137V21.3125C58.4176 20.0234 57.9313 19.3789 56.9586 19.3789C56.7945 19.3789 56.6363 19.3965 56.484 19.4316C56.3316 19.4668 56.1734 19.5254 56.0094 19.6074C55.857 19.6895 55.6871 19.8066 55.4996 19.959C55.3238 20.1113 55.1129 20.2988 54.8668 20.5215V26.1641C54.8668 26.5273 54.9605 26.7852 55.148 26.9375C55.3355 27.0781 55.6871 27.1719 56.2027 27.2188V27.5H51.9488V27.2188C52.2066 27.1953 52.4117 27.1602 52.5641 27.1133C52.7281 27.0547 52.857 26.9668 52.9508 26.8496C53.0445 26.7324 53.109 26.5859 53.1441 26.4102C53.1793 26.2227 53.1969 25.9883 53.1969 25.707V20.7148C53.1969 20.2227 53.1441 19.8887 53.0387 19.7129C52.9332 19.5254 52.7398 19.4316 52.4586 19.4316C52.2477 19.4316 52.066 19.4609 51.9137 19.5195V19.168ZM68.5285 21.207C68.3059 20.3047 68.0305 19.666 67.7023 19.291C67.3742 18.916 66.923 18.7285 66.3488 18.7285C65.8801 18.7285 65.5051 18.8574 65.2238 19.1152C64.9426 19.3613 64.802 19.6895 64.802 20.0996C64.802 20.6738 65.0891 21.1309 65.6633 21.4707L67.8254 22.7539C68.4348 23.1172 68.8684 23.4805 69.1262 23.8438C69.384 24.1953 69.5129 24.623 69.5129 25.127C69.5129 25.4785 69.4367 25.8125 69.2844 26.1289C69.132 26.4453 68.927 26.7207 68.6691 26.9551C68.423 27.1777 68.1301 27.3594 67.7902 27.5C67.4504 27.6289 67.0871 27.6934 66.7004 27.6934C66.4895 27.6934 66.2609 27.6758 66.0148 27.6406C65.7687 27.6172 65.4992 27.5703 65.2062 27.5C64.9719 27.4414 64.7902 27.4004 64.6613 27.377C64.5324 27.3535 64.4094 27.3418 64.2922 27.3418C64.175 27.3418 64.0871 27.3594 64.0285 27.3945C63.9699 27.4297 63.9055 27.4941 63.8352 27.5879H63.5715V24.459H63.8879C64.0051 24.9746 64.1398 25.4082 64.2922 25.7598C64.4445 26.1113 64.6203 26.3984 64.8195 26.6211C65.0187 26.8438 65.2531 27.0078 65.5227 27.1133C65.7922 27.207 66.0969 27.2539 66.4367 27.2539C66.9641 27.2539 67.3742 27.125 67.6672 26.8672C67.9719 26.6094 68.1242 26.2578 68.1242 25.8125C68.1242 25.2148 67.7727 24.7168 67.0695 24.3184L65.9094 23.6504C65.4758 23.4043 65.1066 23.1699 64.802 22.9473C64.509 22.7246 64.2687 22.502 64.0812 22.2793C63.8937 22.0449 63.759 21.8047 63.677 21.5586C63.5949 21.3125 63.5539 21.0488 63.5539 20.7676C63.5539 20.4043 63.6184 20.0703 63.7473 19.7656C63.8879 19.4609 64.0754 19.1973 64.3098 18.9746C64.5559 18.752 64.8488 18.582 65.1887 18.4648C65.5285 18.3477 65.9035 18.2891 66.3137 18.2891C66.7824 18.2891 67.2336 18.3711 67.6672 18.5352C67.9133 18.6406 68.1008 18.6934 68.2297 18.6934C68.2766 18.6934 68.3117 18.6816 68.3352 18.6582C68.3586 18.6348 68.4172 18.582 68.5109 18.5L68.5285 18.4648H68.7746L68.8449 21.207H68.5285ZM74.825 18.3242V25.4609C74.825 25.8242 74.8367 26.1172 74.8602 26.3398C74.8953 26.5508 74.9656 26.7207 75.0711 26.8496C75.1766 26.9668 75.323 27.0488 75.5105 27.0957C75.7098 27.1426 75.9793 27.1836 76.3191 27.2188V27.5H71.5555V27.2188C71.907 27.1953 72.1824 27.1602 72.3816 27.1133C72.5926 27.0547 72.7508 26.9668 72.8563 26.8496C72.9734 26.7207 73.0496 26.5508 73.0848 26.3398C73.1199 26.1172 73.1375 25.8242 73.1375 25.4609V20.8027C73.1375 20.3574 73.0848 20.0469 72.9793 19.8711C72.8855 19.6836 72.7215 19.5898 72.4871 19.5898C72.3934 19.5898 72.282 19.5957 72.1531 19.6074C72.0359 19.6191 71.9129 19.6367 71.784 19.6602L71.6434 19.6777V19.3789L74.7371 18.2715L74.825 18.3242ZM73.823 13.7891C74.1043 13.7891 74.3445 13.8945 74.5438 14.1055C74.743 14.3047 74.8426 14.5449 74.8426 14.8262C74.8426 15.1191 74.743 15.3652 74.5438 15.5645C74.3563 15.752 74.1102 15.8457 73.8055 15.8457C73.5125 15.8457 73.2723 15.752 73.0848 15.5645C72.8973 15.3652 72.8035 15.1191 72.8035 14.8262C72.8035 14.5449 72.9031 14.3047 73.1023 14.1055C73.3016 13.8945 73.5418 13.7891 73.823 13.7891ZM85.4984 19.6953C85.6273 20.0352 85.7152 20.334 85.7621 20.5918C85.8207 20.8379 85.85 21.1133 85.85 21.418C85.85 21.8398 85.768 22.2383 85.6039 22.6133C85.4398 22.9883 85.2172 23.3223 84.9359 23.6152C84.6547 23.8965 84.3266 24.125 83.9516 24.3008C83.5766 24.4648 83.1723 24.5469 82.7387 24.5469C82.6801 24.5469 82.5805 24.541 82.4398 24.5293C82.3109 24.5176 82.1586 24.5 81.9828 24.4766L81.5961 24.4238C81.4555 24.459 81.3148 24.5293 81.1742 24.6348C81.0336 24.7285 80.9047 24.8398 80.7875 24.9688C80.6703 25.0859 80.5707 25.209 80.4887 25.3379C80.4184 25.4668 80.3832 25.584 80.3832 25.6895C80.3832 25.8418 80.5062 25.9648 80.7523 26.0586C81.0102 26.1406 81.4145 26.1934 81.9652 26.2168L84.5492 26.3398C85.2875 26.375 85.8734 26.5859 86.307 26.9727C86.7406 27.3477 86.9574 27.8457 86.9574 28.4668C86.9574 29.0527 86.7816 29.5566 86.4301 29.9785C86.0785 30.4121 85.6391 30.7695 85.1117 31.0508C84.5844 31.332 84.016 31.5371 83.4066 31.666C82.809 31.8066 82.2582 31.877 81.7543 31.877C81.2738 31.877 80.8227 31.8242 80.4008 31.7188C79.9789 31.625 79.6098 31.4902 79.2934 31.3145C78.977 31.1387 78.725 30.9336 78.5375 30.6992C78.3617 30.4648 78.2738 30.2129 78.2738 29.9434C78.2738 29.5684 78.4203 29.1934 78.7133 28.8184C79.018 28.4434 79.5336 27.998 80.2602 27.4824C79.8383 27.2832 79.5512 27.1133 79.3988 26.9727C79.2582 26.8203 79.1879 26.6328 79.1879 26.4102C79.1879 26.2109 79.2582 26.0117 79.3988 25.8125C79.5512 25.6016 79.7914 25.3438 80.1195 25.0391L80.9809 24.2305C80.3012 23.9023 79.8148 23.5332 79.5219 23.123C79.2406 22.7012 79.1 22.1738 79.1 21.541C79.1 21.084 79.1879 20.6562 79.3637 20.2578C79.5395 19.8477 79.7738 19.4961 80.0668 19.2031C80.3715 18.8984 80.7289 18.6582 81.1391 18.4824C81.5492 18.3066 81.9828 18.2188 82.4398 18.2188C82.9789 18.2188 83.518 18.3184 84.057 18.5176L84.5141 18.6934C84.7133 18.7637 84.8949 18.8281 85.059 18.8867C85.2348 18.9336 85.4223 18.957 85.6215 18.957H87.1684V19.6953H85.4984ZM80.682 27.5527C80.4828 27.7871 80.3187 27.9863 80.1898 28.1504C80.0609 28.3145 79.9613 28.4609 79.891 28.5898C79.8207 28.7188 79.768 28.8359 79.7328 28.9414C79.7094 29.0469 79.6977 29.1582 79.6977 29.2754C79.6977 29.7207 79.9555 30.0723 80.4711 30.3301C80.9984 30.5996 81.7074 30.7344 82.598 30.7344C83.1723 30.7344 83.6937 30.6875 84.1625 30.5938C84.6312 30.5 85.0297 30.3652 85.3578 30.1895C85.6977 30.0254 85.9555 29.8203 86.1312 29.5742C86.3187 29.3398 86.4125 29.0762 86.4125 28.7832C86.4125 28.4199 86.225 28.168 85.85 28.0273C85.475 27.8867 84.8363 27.8164 83.934 27.8164C83.6879 27.8164 83.4066 27.8047 83.0902 27.7812C82.7855 27.7695 82.4809 27.752 82.1762 27.7285C81.8832 27.7051 81.602 27.6758 81.3324 27.6406C81.0746 27.6172 80.8578 27.5879 80.682 27.5527ZM80.7699 20.7852C80.7699 21.2656 80.8168 21.7109 80.9105 22.1211C81.016 22.5195 81.1566 22.8652 81.3324 23.1582C81.5199 23.4395 81.7367 23.6621 81.9828 23.8262C82.2406 23.9785 82.5277 24.0547 82.8441 24.0547C83.2895 24.0547 83.6469 23.8906 83.9164 23.5625C84.1859 23.2227 84.3207 22.7715 84.3207 22.209C84.3207 21.7988 84.268 21.3828 84.1625 20.9609C84.0687 20.5391 83.9281 20.1523 83.7406 19.8008C83.5766 19.4844 83.3656 19.2383 83.1078 19.0625C82.85 18.875 82.5687 18.7812 82.2641 18.7812C81.7953 18.7812 81.4262 18.957 81.1566 19.3086C80.8988 19.6602 80.7699 20.1289 80.7699 20.7148V20.7852ZM91.8125 25.4609C91.8125 25.8008 91.8301 26.082 91.8652 26.3047C91.9004 26.5156 91.9648 26.6855 92.0586 26.8145C92.1523 26.9316 92.2871 27.0195 92.4629 27.0781C92.6504 27.1367 92.8906 27.1836 93.1836 27.2188V27.5H88.8418V27.2188C89.1348 27.1719 89.3633 27.1191 89.5273 27.0605C89.7031 27.002 89.832 26.9141 89.9141 26.7969C90.0078 26.668 90.0664 26.5039 90.0898 26.3047C90.1133 26.0938 90.125 25.8125 90.125 25.4609V16.0039C90.125 15.793 90.1133 15.623 90.0898 15.4941C90.0664 15.3535 90.0137 15.248 89.9316 15.1777C89.8613 15.0957 89.7559 15.043 89.6152 15.0195C89.4863 14.9961 89.3164 14.9844 89.1055 14.9844C88.9883 14.9844 88.9062 14.9902 88.8594 15.002V14.668L89.4043 14.5273C89.6855 14.4336 89.9316 14.3574 90.1426 14.2988C90.3535 14.2285 90.5469 14.1699 90.7227 14.123C90.8984 14.0645 91.0625 14.0117 91.2148 13.9648C91.3672 13.9062 91.5312 13.8477 91.707 13.7891L91.8125 13.8594V19.9766C92.2812 19.3555 92.7383 18.916 93.1836 18.6582C93.6406 18.4004 94.1621 18.2715 94.748 18.2715C95.5918 18.2715 96.2129 18.541 96.6113 19.0801C97.0098 19.6191 97.209 20.416 97.209 21.4707V25.4609C97.209 25.8008 97.2207 26.0762 97.2441 26.2871C97.2676 26.4863 97.3203 26.6504 97.4023 26.7793C97.4961 26.8965 97.625 26.9902 97.7891 27.0605C97.9531 27.1191 98.1699 27.1719 98.4395 27.2188V27.5H94.1855V27.2188C94.4785 27.1836 94.7129 27.1367 94.8887 27.0781C95.0645 27.0195 95.1992 26.9316 95.293 26.8145C95.3984 26.6855 95.4629 26.5156 95.4863 26.3047C95.5215 26.082 95.5391 25.8008 95.5391 25.4609V21.5059C95.5391 20.0879 95.0469 19.3789 94.0625 19.3789C93.6523 19.3789 93.2773 19.4727 92.9375 19.6602C92.6094 19.8359 92.2344 20.1582 91.8125 20.627V25.4609ZM104.718 19.0977H102.679V24.8633C102.679 25.5078 102.761 25.9707 102.925 26.252C103.089 26.5215 103.353 26.6562 103.716 26.6562C103.951 26.6562 104.156 26.6094 104.332 26.5156C104.507 26.4102 104.713 26.2227 104.947 25.9531L105.193 26.1992C104.56 27.1953 103.752 27.6934 102.767 27.6934C101.584 27.6934 100.992 26.8438 100.992 25.1445V19.0977H99.9371C99.8902 19.0859 99.8668 19.0449 99.8668 18.9746C99.8668 18.8574 99.9781 18.7285 100.201 18.5879C100.728 18.2832 101.379 17.5684 102.152 16.4434C102.211 16.3496 102.275 16.2617 102.345 16.1797C102.427 16.0859 102.498 15.9863 102.556 15.8809C102.603 15.8809 102.632 15.8984 102.644 15.9336C102.668 15.9688 102.679 16.0391 102.679 16.1445V18.4648H104.718V19.0977ZM113.476 25.3906C113.476 25.8359 113.517 26.1465 113.599 26.3223C113.681 26.4863 113.839 26.5684 114.073 26.5684C114.343 26.5684 114.636 26.4453 114.952 26.1992V26.709C114.612 27.084 114.314 27.3418 114.056 27.4824C113.798 27.623 113.499 27.6934 113.159 27.6934C112.749 27.6934 112.445 27.582 112.245 27.3594C112.058 27.125 111.941 26.7383 111.894 26.1992C111.284 26.7266 110.751 27.1074 110.294 27.3418C109.837 27.5762 109.392 27.6934 108.958 27.6934C108.325 27.6934 107.81 27.4941 107.411 27.0957C107.025 26.6973 106.831 26.1816 106.831 25.5488C106.831 25.2324 106.89 24.916 107.007 24.5996C107.136 24.2715 107.318 24.0078 107.552 23.8086C107.763 23.6211 107.956 23.4629 108.132 23.334C108.32 23.1934 108.56 23.0527 108.853 22.9121C109.146 22.7598 109.527 22.5898 109.995 22.4023C110.464 22.2148 111.085 21.9629 111.859 21.6465V20.3633C111.859 19.8125 111.724 19.3965 111.454 19.1152C111.196 18.834 110.821 18.6934 110.329 18.6934C109.919 18.6934 109.573 18.793 109.292 18.9922C109.023 19.1797 108.888 19.4082 108.888 19.6777C108.888 19.7832 108.9 19.918 108.923 20.082C108.958 20.2461 108.976 20.3809 108.976 20.4863C108.976 20.7207 108.882 20.9199 108.695 21.084C108.519 21.248 108.314 21.3301 108.079 21.3301C107.845 21.3301 107.64 21.248 107.464 21.084C107.3 20.9082 107.218 20.7031 107.218 20.4688C107.218 20.2109 107.288 19.9473 107.429 19.6777C107.581 19.4082 107.786 19.168 108.044 18.957C108.314 18.7227 108.671 18.541 109.116 18.4121C109.573 18.2832 110.066 18.2188 110.593 18.2188C111.202 18.2188 111.712 18.3242 112.122 18.5352C112.544 18.7344 112.866 19.0156 113.089 19.3789C113.23 19.6133 113.329 19.8887 113.388 20.2051C113.446 20.5098 113.476 20.9258 113.476 21.4531V25.3906ZM111.859 22.1387C111.249 22.3613 110.728 22.5781 110.294 22.7891C109.872 22.9883 109.527 23.1992 109.257 23.4219C108.999 23.6328 108.812 23.8613 108.695 24.1074C108.577 24.3535 108.519 24.623 108.519 24.916V25.0039C108.519 25.2148 108.554 25.4199 108.624 25.6191C108.695 25.8066 108.788 25.9707 108.905 26.1113C109.034 26.252 109.181 26.3633 109.345 26.4453C109.509 26.5273 109.679 26.5684 109.855 26.5684C110.066 26.5684 110.3 26.5273 110.558 26.4453C110.827 26.3516 111.079 26.2402 111.314 26.1113C111.548 25.9824 111.695 25.8477 111.753 25.707C111.823 25.5664 111.859 25.3438 111.859 25.0391V22.1387Z" fill="#333333"/>
</svg>
